<svg width="123" height="25" viewBox="0 0 123 25" fill="none" xmlns="http://www.w3.org/2000/svg">
<path d="M107.957 23.8323H112.041V16.531L117.74 23.8323H122.737L116.103 15.4176L121.77 8.12127H117.223L112.041 14.8461V0L107.957 0.591507V23.8323ZM98.5387 7.71882C94.0048 7.71882 90.8564 11.0886 90.8564 15.9743C90.8564 20.8601 94.0048 24.2299 98.5387 24.2299C103.072 24.2299 106.221 20.8601 106.221 15.9743C106.221 11.0886 103.072 7.71882 98.5387 7.71882ZM98.5387 20.3829C96.4381 20.3829 94.9989 18.5887 94.9989 15.9743C94.9989 13.36 96.4381 11.5658 98.5387 11.5658C100.639 11.5658 102.078 13.36 102.078 15.9743C102.078 18.5887 100.639 20.3829 98.5387 20.3829ZM81.9416 7.71882C77.4079 7.71882 74.2593 11.0886 74.2593 15.9743C74.2593 20.8601 77.4079 24.2299 81.9416 24.2299C86.4755 24.2299 89.6239 20.8601 89.6239 15.9743C89.6239 11.0886 86.4755 7.71882 81.9416 7.71882ZM81.9416 20.3829C79.8412 20.3829 78.4018 18.5887 78.4018 15.9743C78.4018 13.36 79.8412 11.5658 81.9416 11.5658C84.0422 11.5658 85.4814 13.36 85.4814 15.9743C85.4814 18.5887 84.0422 20.3829 81.9416 20.3829ZM66.3116 7.71882C64.4225 7.71882 62.8573 8.53888 61.8767 10.0398V0L57.7882 0.586455V23.8273H61.4135L61.4854 21.4018C62.4525 23.211 64.1841 24.2299 66.3116 24.2299C70.1888 24.2299 73.0269 20.7506 73.0269 15.9743C73.0269 11.1979 70.2022 7.71882 66.3116 7.71882ZM65.3446 20.3829C63.2441 20.3829 61.8049 18.5887 61.8049 15.9743C61.8049 13.36 63.2441 11.5658 65.3446 11.5658C67.445 11.5658 68.8844 13.36 68.8844 15.9743C68.8844 18.5887 67.445 20.3829 65.3446 20.3829ZM49.6021 20.5867C47.4342 20.5867 45.878 19.4733 45.3472 17.5549H55.4088C55.5079 16.9685 55.5753 16.2725 55.5753 15.8053C55.5753 10.7506 53.016 7.71882 48.7161 7.71882C44.3757 7.71882 41.3711 11.0886 41.3711 15.9743C41.3711 20.9247 44.5196 24.2299 49.1929 24.2299C51.6126 24.2299 53.965 23.3353 55.4358 21.8492L53.965 18.9864C52.5393 20.0748 51.1404 20.5867 49.6021 20.5867ZM48.689 11.2278C50.5782 11.2278 51.7836 12.4951 51.7836 14.4584V14.4734H45.2618C45.6531 12.3909 46.8719 11.2278 48.689 11.2278ZM34.9752 24.2348C37.0892 24.2348 39.1582 23.3402 40.6154 21.7894L39.0187 18.8223C37.8852 19.7965 36.5989 20.3232 35.38 20.3232C33.1131 20.3232 31.6018 18.5737 31.6018 15.9792C31.6018 13.3848 33.1131 11.6353 35.38 11.6353C36.4999 11.6353 37.7188 12.0826 38.7084 12.8729L40.3321 9.84099C39.0187 8.52893 36.9857 7.72372 34.9706 7.72372C30.5358 7.72372 27.4008 11.1433 27.4008 15.9792C27.4053 20.8004 30.5402 24.2348 34.9752 24.2348ZM21.9899 8.12127L21.918 10.5667C20.9509 8.74263 19.2193 7.72372 17.0918 7.72372C13.2011 7.72372 10.3765 11.203 10.3765 15.9792C10.3765 20.7557 13.2191 24.2348 17.0918 24.2348C19.2193 24.2348 20.9553 23.2159 21.918 21.4067L21.9899 23.8322H25.6151V8.12127H21.9899ZM18.0588 20.3829C15.9583 20.3829 14.519 18.5887 14.519 15.9743C14.519 13.36 15.9583 11.5658 18.0588 11.5658C20.1593 11.5658 21.5985 13.36 21.5985 15.9743C21.5985 18.5887 20.1548 20.3829 18.0588 20.3829ZM10.0706 8.15082H6.39589V6.80875C6.39589 4.80078 7.10656 4.03048 8.9507 4.03048C9.52186 4.03048 9.98512 4.04533 10.2505 4.07518V0.630849C9.7467 0.476696 8.51889 0.322696 7.80822 0.322696C4.05248 0.322696 2.32083 2.28091 2.32083 6.51055V8.14577H0V11.9431H2.32083V23.827H6.40032V11.948H9.44096L10.0706 8.15082Z" fill="#0866FF"/>
</svg>
