<svg width="71" height="40" viewBox="0 0 71 40" fill="none" xmlns="http://www.w3.org/2000/svg">
<path d="M1.76136 27V12.4545H6.67614C7.8125 12.4545 8.74527 12.6487 9.47443 13.0369C10.2036 13.4205 10.7434 13.9484 11.0938 14.6207C11.4441 15.2931 11.6193 16.0578 11.6193 16.9148C11.6193 17.7718 11.4441 18.5317 11.0938 19.1946C10.7434 19.8575 10.206 20.3783 9.48153 20.7571C8.7571 21.1312 7.83144 21.3182 6.70455 21.3182H2.72727V19.7273H6.64773C7.42424 19.7273 8.04924 19.6136 8.52273 19.3864C9.00095 19.1591 9.34659 18.8371 9.55966 18.4205C9.77746 17.9991 9.88636 17.4972 9.88636 16.9148C9.88636 16.3324 9.77746 15.8234 9.55966 15.3878C9.34186 14.9522 8.99384 14.616 8.51562 14.3793C8.03741 14.1378 7.4053 14.017 6.61932 14.017H3.52273V27H1.76136ZM8.60795 20.4659L12.1875 27H10.142L6.61932 20.4659H8.60795ZM24.0998 12.4545H25.8612V22.0852C25.8612 23.0795 25.6268 23.9673 25.158 24.7486C24.694 25.5251 24.0382 26.1383 23.1907 26.5881C22.3432 27.0331 21.3488 27.2557 20.2077 27.2557C19.0666 27.2557 18.0723 27.0331 17.2248 26.5881C16.3772 26.1383 15.7191 25.5251 15.2504 24.7486C14.7863 23.9673 14.5543 23.0795 14.5543 22.0852V12.4545H16.3157V21.9432C16.3157 22.6534 16.4719 23.2855 16.7844 23.8395C17.0969 24.3887 17.542 24.822 18.1197 25.1392C18.7021 25.4517 19.3981 25.608 20.2077 25.608C21.0174 25.608 21.7134 25.4517 22.2958 25.1392C22.8782 24.822 23.3233 24.3887 23.631 23.8395C23.9435 23.2855 24.0998 22.6534 24.0998 21.9432V12.4545Z" fill="black"/>
<path d="M44.7614 27V12.4545H53.5398V14.017H46.5227V18.9318H53.0852V20.4943H46.5227V25.4375H53.6534V27H44.7614ZM68.2486 12.4545V27H66.544L58.6179 15.5795H58.4759V27H56.7145V12.4545H58.419L66.3736 23.9034H66.5156V12.4545H68.2486Z" fill="#2D9BF0"/>
<line x1="34.5" x2="34.5" y2="40" stroke="black"/>
</svg>
